# xmcd CD database file
#
# Track frame offsets:
#	183
#	11433
#	24595
#	39733
#	52245
#	66220
#	80295
#	91420
#	110220
#	123145
#
# Disc length: 1812 seconds
#
# Revision: 0
# Processed by: cddbd v1.5.2PL0 Copyright (c) Steve Scherf et al.
# Submitted via: CDex 1.70beta2
#
DISCID=8107120a
DTITLE=Vari - Una Rotonda Sul Mare 4
DYEAR=1995
DGENRE=Italian Revival
TTITLE0=Gianni Pettenati - Bandiera gialla (nuova versione)
TTITLE1=Patty Pravo - Se perdo te (nuova versione)
TTITLE2=Mal - Yeaaah (nuova versione)
TTITLE3=Michele  -Se mi vuoi lasciare (nuova versione)
TTITLE4=Riccardo del Turco - Luglio (nuova versione)
TTITLE5=Mario Tessuto - Lisa dagli occhi blu (nuova versione)
TTITLE6=Alice e Ellen Kessler - La notte è piccola (nuova versione)
TTITLE7=Bruno Lauzi - Amore caro, amore bello (nuova versione)
TTITLE8=Nuovi Angeli - Ragazzina, ragazzina (nuova versione)
TTITLE9=Wilma Goich - In un fiore (nuova versione)
EXTD=YEAR: 1995
EXTT0=
EXTT1=
EXTT2=
EXTT3=
EXTT4=
EXTT5=
EXTT6=
EXTT7=
EXTT8=
EXTT9=
PLAYORDER=
